<?xml version="1.0" encoding="UTF-8" standalone="no"?>
<!-- Created with Inkscape (http://www.inkscape.org/) -->

<svg
        xmlns:inkscape="http://www.inkscape.org/namespaces/inkscape"
        xmlns:sodipodi="http://sodipodi.sourceforge.net/DTD/sodipodi-0.dtd"
        width="739.10901"
        height="159.57201"
        viewBox="0 0 195.55577 42.220092"
        version="1.1"
        id="svg971"
        inkscape:version="1.2.2 (732a01da63, 2022-12-09)"
        sodipodi:docname="logo-dark.svg"
        xmlns="http://www.w3.org/2000/svg"
>
    <sodipodi:namedview
            id="namedview973"
            pagecolor="#ffffff"
            bordercolor="#999999"
            borderopacity="1"
            inkscape:showpageshadow="0"
            inkscape:pageopacity="0"
            inkscape:pagecheckerboard="0"
            inkscape:deskcolor="#d1d1d1"
            inkscape:document-units="mm"
            showgrid="false"
            showguides="false"
            inkscape:zoom="4.3540635"
            inkscape:cx="133.5534"
            inkscape:cy="71.542366"
            inkscape:window-width="1920"
            inkscape:window-height="991"
            inkscape:window-x="2391"
            inkscape:window-y="1341"
            inkscape:window-maximized="1"
            inkscape:current-layer="g23767"/>
    <defs
            id="defs968"/>
    <g
            inkscape:label="Layer 1"
            inkscape:groupmode="layer"
            id="layer1">
        <g
                id="g23767">
            <path
                    sodipodi:type="star"
                    style="fill:#ff0000;fill-opacity:0;stroke:#ff004f;stroke-width:2.64724;stroke-linecap:round;stroke-linejoin:round;stroke-dasharray:none;stroke-opacity:1"
                    id="path2170"
                    inkscape:flatsided="false"
                    sodipodi:sides="3"
                    sodipodi:cx="86.247879"
                    sodipodi:cy="80.448128"
                    sodipodi:r1="18.100285"
                    sodipodi:r2="9.0501394"
                    sodipodi:arg1="0.51914611"
                    sodipodi:arg2="1.5663437"
                    inkscape:rounded="0"
                    inkscape:randomized="0"
                    d="m 101.96333,89.428384 -15.675154,0.06979 -15.675151,0.0698 7.777133,-13.609976 7.777127,-13.609978 7.898019,13.540182 z"
                    inkscape:transform-center-x="-0.043732993"
                    inkscape:transform-center-y="-75.241873"
                    transform="matrix(0.24839881,0,0,0.24271116,-0.2644181,-14.546898)"/>
            <path
                    sodipodi:type="star"
                    style="fill:#ff0000;fill-opacity:0;stroke:#ff004f;stroke-width:2.64583;stroke-linecap:round;stroke-linejoin:round;stroke-dasharray:none;stroke-opacity:1"
                    id="path2194"
                    inkscape:flatsided="false"
                    sodipodi:sides="3"
                    sodipodi:cx="86.247879"
                    sodipodi:cy="80.448128"
                    sodipodi:r1="18.100285"
                    sodipodi:r2="9.0501394"
                    sodipodi:arg1="0.51914611"
                    sodipodi:arg2="1.5663437"
                    inkscape:rounded="0"
                    inkscape:randomized="0"
                    d="m 101.96333,89.428384 -15.675154,0.06979 -15.675151,0.0698 7.777133,-13.609976 7.777127,-13.609978 7.898019,13.540182 z"
                    inkscape:transform-center-x="-47.173861"
                    inkscape:transform-center-y="-47.257123"
                    transform="matrix(0.17564448,0.17564448,-0.17162271,0.17162271,31.223758,-19.252185)"/>
            <path
                    sodipodi:type="star"
                    style="fill:#ff0000;fill-opacity:0;stroke:#ff004f;stroke-width:2.64583;stroke-linecap:round;stroke-linejoin:round;stroke-dasharray:none;stroke-opacity:1"
                    id="path2196"
                    inkscape:flatsided="false"
                    sodipodi:sides="3"
                    sodipodi:cx="86.247879"
                    sodipodi:cy="80.448128"
                    sodipodi:r1="18.100285"
                    sodipodi:r2="9.0501394"
                    sodipodi:arg1="0.51914611"
                    sodipodi:arg2="1.5663437"
                    inkscape:rounded="0"
                    inkscape:randomized="0"
                    d="m 101.96333,89.428384 -15.675154,0.06979 -15.675151,0.0698 7.777133,-13.609976 7.777127,-13.609978 7.898019,13.540182 z"
                    inkscape:transform-center-x="-75.241873"
                    inkscape:transform-center-y="0.043735082"
                    transform="matrix(0,0.24839881,-0.24271116,0,56.8164,-0.31382149)"/>
            <path
                    sodipodi:type="star"
                    style="fill:#ff0000;fill-opacity:0;stroke:#ff004f;stroke-width:2.64583;stroke-linecap:round;stroke-linejoin:round;stroke-dasharray:none;stroke-opacity:1"
                    id="path2198"
                    inkscape:flatsided="false"
                    sodipodi:sides="3"
                    sodipodi:cx="86.247879"
                    sodipodi:cy="80.448128"
                    sodipodi:r1="18.100285"
                    sodipodi:r2="9.0501394"
                    sodipodi:arg1="0.51914611"
                    sodipodi:arg2="1.5663437"
                    inkscape:rounded="0"
                    inkscape:randomized="0"
                    d="m 101.96333,89.428384 -15.675154,0.06979 -15.675151,0.0698 7.777133,-13.609976 7.777127,-13.609978 7.898019,13.540182 z"
                    inkscape:transform-center-x="-47.25712"
                    inkscape:transform-center-y="47.173857"
                    transform="matrix(-0.17564448,0.17564448,-0.17162271,-0.17162271,61.521686,31.174353)"/>
            <path
                    sodipodi:type="star"
                    style="fill:#ff0000;fill-opacity:0;stroke:#ff004f;stroke-width:2.64583;stroke-linecap:round;stroke-linejoin:round;stroke-dasharray:none;stroke-opacity:1"
                    id="path2200"
                    inkscape:flatsided="false"
                    sodipodi:sides="3"
                    sodipodi:cx="86.247879"
                    sodipodi:cy="80.448128"
                    sodipodi:r1="18.100285"
                    sodipodi:r2="9.0501394"
                    sodipodi:arg1="0.51914611"
                    sodipodi:arg2="1.5663437"
                    inkscape:rounded="0"
                    inkscape:randomized="0"
                    d="m 101.96333,89.428384 -15.675154,0.06979 -15.675151,0.0698 7.777133,-13.609976 7.777127,-13.609978 7.898019,13.540182 z"
                    inkscape:transform-center-x="0.043730082"
                    inkscape:transform-center-y="75.241869"
                    transform="matrix(-0.24839881,0,0,-0.24271116,42.583324,56.766995)"/>
            <path
                    sodipodi:type="star"
                    style="fill:#ff0000;fill-opacity:0;stroke:#ff004f;stroke-width:2.64583;stroke-linecap:round;stroke-linejoin:round;stroke-dasharray:none;stroke-opacity:1"
                    id="path2202"
                    inkscape:flatsided="false"
                    sodipodi:sides="3"
                    sodipodi:cx="86.247879"
                    sodipodi:cy="80.448128"
                    sodipodi:r1="18.100285"
                    sodipodi:r2="9.0501394"
                    sodipodi:arg1="0.51914611"
                    sodipodi:arg2="1.5663437"
                    inkscape:rounded="0"
                    inkscape:randomized="0"
                    d="m 101.96333,89.428384 -15.675154,0.06979 -15.675151,0.0698 7.777133,-13.609976 7.777127,-13.609978 7.898019,13.540182 z"
                    inkscape:transform-center-x="47.173854"
                    inkscape:transform-center-y="47.257126"
                    transform="matrix(-0.17564448,-0.17564448,0.17162271,-0.17162271,11.095149,61.472283)"/>
            <path
                    sodipodi:type="star"
                    style="fill:#ff0000;fill-opacity:0;stroke:#ff004f;stroke-width:2.64583;stroke-linecap:round;stroke-linejoin:round;stroke-dasharray:none;stroke-opacity:1"
                    id="path2204"
                    inkscape:flatsided="false"
                    sodipodi:sides="3"
                    sodipodi:cx="86.247879"
                    sodipodi:cy="80.448128"
                    sodipodi:r1="18.100285"
                    sodipodi:r2="9.0501394"
                    sodipodi:arg1="0.51914611"
                    sodipodi:arg2="1.5663437"
                    inkscape:rounded="0"
                    inkscape:randomized="0"
                    d="m 101.96333,89.428384 -15.675154,0.06979 -15.675151,0.0698 7.777133,-13.609976 7.777127,-13.609978 7.898019,13.540182 z"
                    inkscape:transform-center-x="75.241871"
                    inkscape:transform-center-y="-0.043724082"
                    transform="matrix(0,-0.24839881,0.24271116,0,-14.497494,42.533922)"/>
            <path
                    sodipodi:type="star"
                    style="fill:#ff0000;fill-opacity:0;stroke:#ff004f;stroke-width:2.64583;stroke-linecap:round;stroke-linejoin:round;stroke-dasharray:none;stroke-opacity:1"
                    id="path2206"
                    inkscape:flatsided="false"
                    sodipodi:sides="3"
                    sodipodi:cx="86.247879"
                    sodipodi:cy="80.448128"
                    sodipodi:r1="18.100285"
                    sodipodi:r2="9.0501394"
                    sodipodi:arg1="0.51914611"
                    sodipodi:arg2="1.5663437"
                    inkscape:rounded="0"
                    inkscape:randomized="0"
                    d="m 101.96333,89.428384 -15.675154,0.06979 -15.675151,0.0698 7.777133,-13.609976 7.777127,-13.609978 7.898019,13.540182 z"
                    inkscape:transform-center-x="47.257128"
                    inkscape:transform-center-y="-47.173851"
                    transform="matrix(0.17564448,-0.17564448,0.17162271,0.17162271,-19.202782,11.045746)"/>
            <circle
                    style="fill:#ff0000;fill-opacity:0;stroke:#ff004f;stroke-width:0.605568;stroke-linecap:round;stroke-linejoin:round;stroke-dasharray:none;stroke-opacity:1"
                    id="path2208"
                    cx="21.159454"
                    cy="21.11005"
                    r="11.990265"/>
            <path
                    style="fill:#ff004f;fill-opacity:1;fill-rule:nonzero;stroke:#ff004f;stroke-width:0;stroke-linecap:square;stroke-dasharray:none;stroke-dashoffset:0;stroke-opacity:1"
                    d="m 21.159159,18.68774 a 2.4222757,2.4222757 0 0 0 -2.337356,1.792933 h 4.675301 A 2.4222757,2.4222757 0 0 0 21.159159,18.68774 Z"
                    id="path16415"/>
            <path
                    id="path2946"
                    style="fill:#ff004f;fill-opacity:1;stroke:#ff004f;stroke-width:0;stroke-linecap:square;stroke-dasharray:none;stroke-opacity:1"
                    d="m 21.435889,14.763262 v 3.091949 a 3.2700721,3.2700721 0 0 1 1.437044,0.475349 l 2.211272,-2.213757 a 6.3584739,6.3584739 0 0 0 -3.648316,-1.353541 z m -0.592914,0.0014 a 6.3584739,6.3584739 0 0 0 -3.633414,1.366907 l 2.210682,2.213284 a 3.2700721,3.2700721 0 0 1 1.422732,-0.486466 z m 4.689729,1.742075 -2.180877,2.183479 a 3.2700721,3.2700721 0 0 1 1.013383,1.789031 h 3.119034 a 6.3584739,6.3584739 0 0 0 -1.95154,-3.97251 z m -8.768803,0.01785 a 6.3584739,6.3584739 0 0 0 -1.929305,3.954649 h 3.116906 a 3.2700721,3.2700721 0 0 1 0.993511,-1.771053 z"/>
            <path
                    id="path3027"
                    style="fill:#ff004f;fill-opacity:1;stroke:#ff004f;stroke-width:0;stroke-linecap:square;stroke-dasharray:none;stroke-opacity:1"
                    d="m 21.158209,10.5217 a 10.588373,10.588373 0 0 0 -10.56777,9.959008 h 3.3395 a 7.2577436,7.2577436 0 0 1 7.22827,-6.628379 7.2577436,7.2577436 0 0 1 7.228271,6.628379 h 3.339499 A 10.588373,10.588373 0 0 0 21.158209,10.5217 Z"/>
            <path
                    id="rect5842"
                    style="fill:#ff004f;fill-opacity:1;stroke:#ff004f;stroke-width:0;stroke-linecap:square;stroke-dasharray:none;stroke-opacity:1"
                    d="m 15.684314,25.734863 v 4.922697 a 0.65368226,0.40399783 0 0 0 0.653707,0.40411 0.65368226,0.40399783 0 0 0 0.653707,-0.40411 v -1.693953 a 5.4256659,4.7638353 0 0 1 -1.277958,-3.06958 v -0.159164 z"/>
            <path
                    id="path5837"
                    style="fill:#ff004f;fill-opacity:1;stroke:#ff004f;stroke-width:0;stroke-linecap:square;stroke-dasharray:none;stroke-opacity:1"
                    d="m 16.657381,21.129976 v 4.149101 a 4.481993,4.1488695 0 0 0 4.481897,4.148584 4.481993,4.1488695 0 0 0 4.482414,-4.148584 v -4.149101 h -1.30328 v 1.307931 a 0.62698719,0.68776831 0 0 1 -0.626835,0.687813 0.62698719,0.68776831 0 0 1 -0.627352,-0.687813 v -1.307931 h -1.319299 v 3.681946 a 0.62701717,0.68776831 0 0 1 -0.626835,0.687814 0.62701717,0.68776831 0 0 1 -0.627352,-0.687814 v -3.681946 h -1.26814 v 1.316199 a 0.62698719,0.68776831 0 0 1 -0.626835,0.687813 0.62698719,0.68776831 0 0 1 -0.626835,-0.687813 v -1.316199 z m 5.656502,5.405872 a 0.62836848,0.62231667 65.977496 0 1 0.552422,0.373621 0.62836848,0.62231667 65.977496 0 1 -0.257349,0.798917 l 0.001,0.0016 a 2.9204569,2.9204571 0 0 1 -1.460376,0.391707 2.9204569,2.9204571 0 0 1 -1.459342,-0.392224 l 5.17e-4,-10e-4 a 0.62231667,0.62836848 36.02629 0 1 -0.05426,-0.03462 0.62231667,0.62836848 36.02629 0 1 -0.133326,-0.874365 0.62231667,0.62836848 36.02629 0 1 0.860413,-0.149862 1.6663996,1.6663998 0 0 0 0.785998,0.197921 1.6663996,1.6663998 0 0 0 0.787549,-0.198954 0.62836848,0.62231667 65.977496 0 1 0.104903,-0.05995 0.62836848,0.62231667 65.977496 0 1 0.271818,-0.05271 z"/>
            <path
                    id="path24706"
                    style="vector-effect:non-scaling-stroke;fill:#ff004f;fill-opacity:1;stroke:#ff004f;stroke-width:0.0605568;stroke-linecap:square;stroke-dasharray:none;stroke-opacity:1;-inkscape-stroke:hairline"
                    d="m 13.263122,21.084838 a 2.3197315,2.3104833 0 0 0 -2.1888,2.305539 2.3197315,2.3104833 0 0 0 2.319731,2.310506 2.3197315,2.3104833 0 0 0 2.319729,-2.310506 2.3197315,2.3104833 0 0 0 -2.116651,-2.29856 1.7431149,1.7431149 0 0 1 1.540061,1.731194 1.7431149,1.7431149 0 0 1 -1.743139,1.743139 1.7431149,1.7431149 0 0 1 -1.743141,-1.743139 1.7431149,1.7431149 0 0 1 1.61221,-1.738173 z m 0.334009,0.007 a 1.7431149,1.7431149 0 0 0 -0.05275,-0.0054 2.3197315,2.3104833 0 0 1 0.05275,0.0054 z m -1.489794,3.234354 a 0.39844392,0.39844392 0 0 1 0.398469,0.398705 0.39844392,0.39844392 0 0 1 -0.398469,0.398115 v -0.0018 a 0.39844392,0.39844392 0 0 1 -0.120879,-0.01774 0.39844392,0.39844392 0 0 0 0.278067,-0.379782 0.39844392,0.39844392 0 0 0 -0.277829,-0.379781 0.39844392,0.39844392 0 0 1 0.120641,-0.01774 z m 2.57343,0 v 0.0018 a 0.39844392,0.39844392 0 0 1 0.120759,0.01762 0.39844392,0.39844392 0 0 0 -0.277947,0.379898 0.39844392,0.39844392 0 0 0 0.277828,0.379784 0.39844392,0.39844392 0 0 1 -0.12064,0.01762 0.39844392,0.39844392 0 0 1 -0.398586,-0.398586 0.39844392,0.39844392 0 0 1 0.398586,-0.398114 z m -1.286714,0.340042 a 0.51384223,0.45679173 0 0 1 0.513786,0.456778 0.51384223,0.45679173 0 0 1 -0.513786,0.456778 0.51384223,0.45679173 0 0 1 -0.513908,-0.456778 0.51384223,0.45679173 0 0 1 0.513908,-0.456778 z"/>
            <path
                    id="path24706-6"
                    style="vector-effect:non-scaling-stroke;fill:#ff004f;fill-opacity:1;stroke:#ff004f;stroke-width:0.0605568;stroke-linecap:square;stroke-dasharray:none;stroke-opacity:1;-inkscape-stroke:hairline"
                    d="m 28.754003,21.090753 a 2.3197315,2.3104833 0 0 0 -2.188801,2.305538 2.3197315,2.3104833 0 0 0 2.319732,2.310506 2.3197315,2.3104833 0 0 0 2.319729,-2.310506 2.3197315,2.3104833 0 0 0 -2.116652,-2.29856 1.7431149,1.7431149 0 0 1 1.540062,1.731194 1.7431149,1.7431149 0 0 1 -1.743139,1.743139 1.7431149,1.7431149 0 0 1 -1.743142,-1.743139 1.7431149,1.7431149 0 0 1 1.612211,-1.738172 z m 0.334008,0.007 a 1.7431149,1.7431149 0 0 0 -0.05275,-0.0054 2.3197315,2.3104833 0 0 1 0.05275,0.0054 z m -1.489793,3.234354 a 0.39844392,0.39844392 0 0 1 0.398469,0.398705 0.39844392,0.39844392 0 0 1 -0.398469,0.398115 v -0.0018 a 0.39844392,0.39844392 0 0 1 -0.120879,-0.01774 0.39844392,0.39844392 0 0 0 0.278067,-0.379782 0.39844392,0.39844392 0 0 0 -0.277829,-0.379781 0.39844392,0.39844392 0 0 1 0.120641,-0.01774 z m 2.573429,0 v 0.0018 a 0.39844392,0.39844392 0 0 1 0.12076,0.01762 0.39844392,0.39844392 0 0 0 -0.277947,0.379898 0.39844392,0.39844392 0 0 0 0.277828,0.379784 0.39844392,0.39844392 0 0 1 -0.120641,0.01762 0.39844392,0.39844392 0 0 1 -0.398586,-0.398586 0.39844392,0.39844392 0 0 1 0.398586,-0.398114 z m -1.286713,0.340042 a 0.51384223,0.45679173 0 0 1 0.513786,0.456778 0.51384223,0.45679173 0 0 1 -0.513786,0.456778 0.51384223,0.45679173 0 0 1 -0.513908,-0.456778 0.51384223,0.45679173 0 0 1 0.513908,-0.456778 z"/>
            <text
                    xml:space="preserve"
                    style="font-size:33.5087px;font-family:Poppins;-inkscape-font-specification:Poppins;letter-spacing:0.698099px;fill:#2b0000;fill-opacity:1;stroke:#ff7a7a;stroke-width:0;stroke-linecap:round;stroke-linejoin:round;stroke-dasharray:none;stroke-opacity:1"
                    x="51.286942"
                    y="33.236912"
                    id="text2298"><tspan
           sodipodi:role="line"
           id="tspan2296"
           style="font-style:normal;font-variant:normal;font-weight:bold;font-stretch:normal;font-family:Poppins;-inkscape-font-specification:'Poppins Bold';fill:#2b0000;stroke-width:0;stroke-dasharray:none"
           x="51.286942"
           y="33.236912"><tspan
             style="font-style:normal;font-variant:normal;font-weight:bold;font-stretch:normal;font-family:Poppins;-inkscape-font-specification:'Poppins Bold';fill:#ff004f;fill-opacity:1;stroke-width:0"
             id="tspan2452">I</tspan><tspan
                    style="fill:#ffffff;stroke:#ffffff;stroke-width:0"
                    id="tspan11316">ncadev</tspan></tspan></text>
            <path
                    id="rect6170"
                    style="fill:#ff0000;stroke:#ff004f;stroke-width:0.446763;stroke-linecap:round;stroke-linejoin:round;stroke-dasharray:none;stroke-opacity:1"
                    d="m 47.393842,21.179356 v 20.552751 h 0.125057 V 21.179356 Z"/>
            <path
                    id="path8879"
                    style="fill:#ff0000;stroke:#ff004f;stroke-width:0.446763;stroke-linecap:round;stroke-linejoin:round;stroke-dasharray:none;stroke-opacity:1"
                    d="m 47.518899,19.101205 h -0.125057 v 2.759005 h 0.125057 z"/>
            <path
                    id="rect6170-6"
                    style="fill:#ff0000;stroke:#ff004f;stroke-width:0.446763;stroke-linecap:round;stroke-linejoin:round;stroke-dasharray:none;stroke-opacity:1"
                    d="M 47.393842,21.255585 V 0.70283363 h 0.125057 V 21.255585 Z"/>
            <path
                    id="rect5842-1"
                    style="fill:#ff004f;fill-opacity:1;stroke:#ff004f;stroke-width:0;stroke-linecap:square;stroke-dasharray:none;stroke-opacity:1"
                    d="m 26.591792,25.719671 v 4.922697 a 0.65368226,0.40399783 0 0 1 -0.653707,0.40411 0.65368226,0.40399783 0 0 1 -0.653707,-0.40411 v -1.693953 a 5.4256659,4.7638353 0 0 0 1.277958,-3.06958 v -0.159164 z"/>
        </g>
    </g>
</svg>
